HIERARCHY
ROOT hip
{
  OFFSET 0 0 0
  CHANNELS 6 Xposition Yposition Zposition Zrotation Yrotation Xrotation
  JOINT abdomen
  {
    OFFSET 0 20.6881 -0.73152
    CHANNELS 3 Zrotation Xrotation Yrotation
    JOINT chest
    {
      OFFSET 0 11.7043 -0.48768
      CHANNELS 3 Zrotation Xrotation Yrotation
      JOINT neck
      {
        OFFSET 0 22.1894 -2.19456
        CHANNELS 3 Zrotation Xrotation Yrotation
        JOINT head
        {
          OFFSET -0.24384 7.07133 1.2192
          CHANNELS 3 Zrotation Xrotation Yrotation
          JOINT leftEye
          {
            OFFSET 4.14528 8.04674 8.04672
            CHANNELS 3 Zrotation Xrotation Yrotation
            End Site
            {
              OFFSET 1 0 0
            }
          }
          JOINT rightEye
          {
            OFFSET -3.6576 8.04674 8.04672
            CHANNELS 3 Zrotation Xrotation Yrotation
            End Site
            {
              OFFSET 1 0 0
            }
          }
        }
      }
      JOINT rCollar
      {
        OFFSET -2.68224 19.2634 -4.8768
        CHANNELS 3 Zrotation Xrotation Yrotation
        JOINT rShldr
        {
          OFFSET -8.77824 -1.95073 1.46304
          CHANNELS 3 Zrotation Xrotation Yrotation
          JOINT rForeArm
          {
            OFFSET -28.1742 -1.7115 0.48768
            CHANNELS 3 Zrotation Xrotation Yrotation
            JOINT rHand
            {
              OFFSET -22.5879 0.773209 7.07136
              CHANNELS 3 Zrotation Xrotation Yrotation
              JOINT rThumb1
              {
                OFFSET -1.2192 -0.487915 3.41376
                CHANNELS 3 Zrotation Xrotation Yrotation
                JOINT rThumb2
                {
                  OFFSET -3.37035 -0.52449 3.41376
                  CHANNELS 3 Zrotation Xrotation Yrotation
                  End Site
                  {
                    OFFSET -1.78271 -1.18214 1.43049
                  }
                }
              }
              JOINT rIndex1
              {
                OFFSET -7.75947 0.938293 5.60832
                CHANNELS 3 Zrotation Xrotation Yrotation
                JOINT rIndex2
                {
                  OFFSET -2.54057 -0.884171 1.56538
                  CHANNELS 3 Zrotation Xrotation Yrotation
                  End Site
                  {
                    OFFSET -1.62519 -0.234802 1.16502
                  }
                }
              }
              JOINT rMid1
              {
                OFFSET -8.24714 1.18213 3.41376
                CHANNELS 3 Zrotation Xrotation Yrotation
                JOINT rMid2
                {
                  OFFSET -3.10165 -0.590103 1.0647
                  CHANNELS 3 Zrotation Xrotation Yrotation
                  End Site
                  {
                    OFFSET -2.48547 -0.328903 0.83742
                  }
                }
              }
              JOINT rRing1
              {
                OFFSET -8.82822 0.546677 1.51678
                CHANNELS 3 Zrotation Xrotation Yrotation
                JOINT rRing2
                {
                  OFFSET -2.60934 -0.819778 -0.0198488
                  CHANNELS 3 Zrotation Xrotation Yrotation
                  End Site
                  {
                    OFFSET -2.33842 -0.294052 0.168128
                  }
                }
              }
              JOINT rPinky1
              {
                OFFSET -8.27202 -0.0477905 -0.4584
                CHANNELS 3 Zrotation Xrotation Yrotation
                JOINT rPinky2
                {
                  OFFSET -1.82734 -0.647385 -0.700984
                  CHANNELS 3 Zrotation Xrotation Yrotation
                  End Site
                  {
                    OFFSET -1.69225 -0.51767 -0.607171
                  }
                }
              }
            }
          }
        }
      }
      JOINT lCollar
      {
        OFFSET 2.68224 19.2634 -4.8768
        CHANNELS 3 Zrotation Xrotation Yrotation
        JOINT lShldr
        {
          OFFSET 8.77824 -1.95073 1.46304
          CHANNELS 3 Zrotation Xrotation Yrotation
          JOINT lForeArm
          {
            OFFSET 28.1742 -1.7115 0.48768
            CHANNELS 3 Zrotation Xrotation Yrotation
            JOINT lHand
            {
              OFFSET 22.5879 0.773209 7.07136
              CHANNELS 3 Zrotation Xrotation Yrotation
              JOINT lThumb1
              {
                OFFSET 1.2192 -0.487915 3.41376
                CHANNELS 3 Zrotation Xrotation Yrotation
                JOINT lThumb2
                {
                  OFFSET 3.37035 -0.52449 3.41376
                  CHANNELS 3 Zrotation Xrotation Yrotation
                  End Site
                  {
                    OFFSET 1.78271 -1.18214 1.43049
                  }
                }
              }
              JOINT lIndex1
              {
                OFFSET 7.75947 0.938293 5.60832
                CHANNELS 3 Zrotation Xrotation Yrotation
                JOINT lIndex2
                {
                  OFFSET 2.54057 -0.884171 1.56538
                  CHANNELS 3 Zrotation Xrotation Yrotation
                  End Site
                  {
                    OFFSET 1.62519 -0.234802 1.16502
                  }
                }
              }
              JOINT lMid1
              {
                OFFSET 8.24714 1.18213 3.41376
                CHANNELS 3 Zrotation Xrotation Yrotation
                JOINT lMid2
                {
                  OFFSET 3.10165 -0.590103 1.0647
                  CHANNELS 3 Zrotation Xrotation Yrotation
                  End Site
                  {
                    OFFSET 2.48547 -0.328903 0.83742
                  }
                }
              }
              JOINT lRing1
              {
                OFFSET 8.82822 0.546677 1.51678
                CHANNELS 3 Zrotation Xrotation Yrotation
                JOINT lRing2
                {
                  OFFSET 2.60934 -0.819778 -0.0198488
                  CHANNELS 3 Zrotation Xrotation Yrotation
                  End Site
                  {
                    OFFSET 2.33842 -0.294052 0.168128
                  }
                }
              }
              JOINT lPinky1
              {
                OFFSET 8.27202 -0.0477905 -0.4584
                CHANNELS 3 Zrotation Xrotation Yrotation
                JOINT lPinky2
                {
                  OFFSET 1.82734 -0.647385 -0.700984
                  CHANNELS 3 Zrotation Xrotation Yrotation
                  End Site
                  {
                    OFFSET 1.69225 -0.51767 -0.607171
                  }
                }
              }
            }
          }
        }
      }
    }
  }
  JOINT rButtock
  {
    OFFSET -8.77824 4.35084 1.2192
    CHANNELS 3 Zrotation Xrotation Yrotation
    JOINT rThigh
    {
      OFFSET 0 -1.70687 -2.19456
      CHANNELS 3 Zrotation Xrotation Yrotation
      JOINT rShin
      {
        OFFSET 0 -36.8199 0.73152
        CHANNELS 3 Zrotation Xrotation Yrotation
        JOINT rFoot
        {
          OFFSET 0.73152 -45.1104 -5.12064
          CHANNELS 3 Zrotation Xrotation Yrotation
          End Site
          {
            OFFSET -1.1221 -3.69964 12.103
          }
        }
      }
    }
  }
  JOINT lButtock
  {
    OFFSET 8.77824 4.35084 1.2192
    CHANNELS 3 Zrotation Xrotation Yrotation
    JOINT lThigh
    {
      OFFSET 0 -1.70687 -2.19456
      CHANNELS 3 Zrotation Xrotation Yrotation
      JOINT lShin
      {
        OFFSET 0 -36.8199 0.73152
        CHANNELS 3 Zrotation Xrotation Yrotation
        JOINT lFoot
        {
          OFFSET -0.73152 -45.1104 -5.12064
          CHANNELS 3 Zrotation Xrotation Yrotation
          End Site
          {
            OFFSET 1.1221 -3.69964 12.103
          }
        }
      }
    }
  }
}
MOTION
Frames:	6
Frame Time:	0.00833333
42.012 85.2982 11.9716 0.0 0.0 0.0 0.984375 -0.00436084 0.0272519 0.271551 -0.00455316 0.0470455 1.30775e-14 7.95139e-16 8.69683e-17 3.9406e-14 3.18055e-15 2.842e-16 -0.0 0.0 0.0 -0.0 0.0 0.0 6.70761e-15 -4.58137e-17 1.98785e-16 1.38788e-13 -1.3418e-15 2.5842e-15 2.3717e-12 -7.46238e-13 -1.59028e-14 2.71689e-11 5.33364e-13 2.54444e-13 6.40789e-11 -4.58317e-13 5.1843e-13 1.10648e-10 -7.88778e-13 8.87375e-13 6.40842e-11 -4.58e-13 5.08889e-13 7.73091 5.47488 0.417314 6.40775e-11 -4.58497e-13 5.21611e-13 2.90554 0.965183 0.102902 6.40847e-11 -4.58497e-13 5.20021e-13 10.2786 0.731801 0.0259123 6.40701e-11 -4.55217e-13 5.27972e-13 2.22167 -0.733487 -0.20892 6.512e-15 -4.50372e-17 -9.93923e-17 1.36008e-13 -1.72073e-15 7.95139e-16 2.37513e-12 6.72489e-13 1.27222e-14 2.71606e-11 -9.01886e-13 2.41722e-13 6.40717e-11 -4.89185e-13 5.27972e-13 1.10665e-10 -8.42847e-13 9.08048e-13 6.40675e-11 -4.8742e-13 5.37514e-13 -7.73091 5.47488 -0.417314 6.40721e-11 -4.89507e-13 5.24792e-13 -2.90554 0.965183 -0.102902 6.40688e-11 -4.8901e-13 5.25587e-13 -10.2786 0.731801 -0.0259123 6.40836e-11 -4.86227e-13 5.1525e-13 -2.22167 -0.733487 0.20892 -2.03217e-16 0.0 -3.88251e-19 1.24856 -5.45301 -0.109152 7.10679e-05 4.3224 0.0238969 -0.510396 1.12948 0.0811997 2.03217e-16 0.0 3.88251e-19 0.249407 -1.91924 0.0129276 0.00928558 -2.07855 0.0767013 0.496532 3.99654 -0.137986
36.2588 82.6187 3.96085 176.514 -81.6716 -168.35 1.15702 10.021 0.839637 0.302242 -2.6061 0.182791 -1.07755 -3.62618 0.0829051 -0.166311 1.28353 0.674371 -0.0 0.0 0.0 -0.0 0.0 0.0 6.68936e-15 -5.35276e-14 4.17021e-15 20.8066 6.24025 3.27859 -11.9087 -8.84593 13.3891 0.0304274 -3.87638 -0.540316 3.47219e-10 8.52787e-10 -1.08491e-09 6.12717e-10 1.47362e-09 -1.87195e-09 3.47224e-10 8.52787e-10 -1.08492e-09 7.73091 5.47488 0.417314 3.47217e-10 8.52787e-10 -1.08491e-09 2.90554 0.965183 0.102902 3.47224e-10 8.52787e-10 -1.08491e-09 10.2786 0.731801 0.0259123 3.47211e-10 8.5279e-10 -1.08491e-09 2.22167 -0.733487 -0.20892 6.49998e-15 -5.35297e-14 3.87203e-15 -19.0634 11.3734 -7.71689 16.4938 -13.8899 -14.8704 -0.00286324 -1.21165 0.170161 -5.09288e-10 -3.82544e-10 8.98788e-10 -8.84053e-10 -6.61916e-10 1.55246e-09 -5.09297e-10 -3.82545e-10 8.98801e-10 -7.73091 5.47488 -0.417314 -5.09289e-10 -3.82545e-10 8.98787e-10 -2.90554 0.965183 -0.102902 -5.09293e-10 -3.82545e-10 8.98787e-10 -10.2786 0.731801 -0.0259123 -5.09278e-10 -3.82543e-10 8.98778e-10 -2.22167 -0.733487 0.20892 -2.03217e-16 0.0 -3.88251e-19 -4.46072 -13.3046 -3.79129 0.0172088 12.2277 0.159295 -0.635879 0.966065 -3.06168 2.03217e-16 0.0 3.88251e-19 3.3927 -12.8822 3.7868 0.0212201 12.7409 -0.104429 0.83065 -0.526468 1.92314
36.1563 82.5638 3.89028 173.884 -82.4494 -165.781 1.00413 20.6038 1.78892 0.358258 -5.34935 0.328031 -2.20002 -7.45991 0.172245 -0.390975 2.63386 1.38765 -0.0 0.0 0.0 -0.0 0.0 0.0 6.83575e-15 -9.73948e-14 8.24646e-15 42.0144 12.7805 6.88845 -20.0256 -16.5811 28.5043 -0.0177695 -7.99696 -1.12315 6.75814e-10 1.84841e-09 -2.34101e-09 1.1953e-09 3.19415e-09 -4.03932e-09 6.7582e-10 1.84841e-09 -2.34101e-09 7.73091 5.47488 0.417314 6.75812e-10 1.84841e-09 -2.34101e-09 2.90554 0.965183 0.102902 6.75819e-10 1.84841e-09 -2.34101e-09 10.2786 0.731801 0.0259123 6.75808e-10 1.84841e-09 -2.34101e-09 2.22167 -0.733487 -0.20892 6.65102e-15 -9.74002e-14 7.94828e-15 -35.6168 22.6792 -16.9054 25.7626 -25.3371 -33.2144 0.00198513 -2.46443 0.34636 -1.17172e-09 -8.18216e-10 1.94852e-09 -2.03343e-09 -1.41575e-09 3.36562e-09 -1.17174e-09 -8.18219e-10 1.94853e-09 -7.73091 5.47488 -0.417314 -1.17173e-09 -8.18217e-10 1.94852e-09 -2.90554 0.965183 -0.102902 -1.17173e-09 -8.18218e-10 1.94852e-09 -10.2786 0.731801 -0.0259123 -1.17171e-09 -8.18217e-10 1.94851e-09 -2.22167 -0.733487 0.20892 -2.03217e-16 0.0 -3.88251e-19 -11.6521 -21.4756 -8.01723 -0.00796891 20.5425 0.313983 -0.782844 0.823989 -6.3777 2.03217e-16 0.0 3.88251e-19 8.43016 -24.2901 8.3395 0.146645 28.3986 -0.330038 1.54237 -5.29671 4.1349
36.2024 82.4807 3.69436 173.713 -82.9716 -165.562 0.536472 30.0453 2.80284 0.400922 -7.809 0.457961 -3.20068 -10.8785 0.252759 -0.589728 3.84844 2.02718 -0.0 0.0 0.0 -0.0 0.0 0.0 6.65286e-15 -1.60491e-13 1.21131e-14 60.1907 18.4689 10.314 -23.7991 -20.6457 43.0262 -0.131928 -11.625 -1.65112 9.13498e-10 2.55928e-09 -3.25578e-09 1.61686e-09 4.42244e-09 -5.61762e-09 9.13504e-10 2.55928e-09 -3.25577e-09 7.73091 5.47488 0.417314 9.13496e-10 2.55928e-09 -3.25577e-09 2.90554 0.965183 0.102902 9.13502e-10 2.55928e-09 -3.25578e-09 10.2786 0.731801 0.0259123 9.13493e-10 2.55928e-09 -3.25578e-09 2.22167 -0.733487 -0.20892 6.47594e-15 -1.60499e-13 1.18149e-14 -46.9723 31.4359 -26.8828 27.7833 -29.8036 -52.1887 0.0130377 -3.63483 0.511396 -1.65601e-09 -1.14665e-09 2.69531e-09 -2.87349e-09 -1.98406e-09 4.65557e-09 -1.65602e-09 -1.14666e-09 2.69533e-09 -7.73091 5.47488 -0.417314 -1.65601e-09 -1.14666e-09 2.69531e-09 -2.90554 0.965183 -0.102902 -1.65602e-09 -1.14666e-09 2.69531e-09 -10.2786 0.731801 -0.0259123 -1.656e-09 -1.14666e-09 2.6953e-09 -2.22167 -0.733487 0.20892 -2.03217e-16 0.0 -3.88251e-19 -19.2587 -28.5236 -12.3721 -0.0742528 28.0377 0.475151 -0.94057 0.634824 -9.34667 2.03217e-16 0.0 3.88251e-19 14.7556 -34.1527 13.3896 0.400262 42.3781 -0.621187 2.48255 -9.51967 6.1292
36.0722 82.446 3.57176 174.526 -83.5956 -166.319 -0.000760923 36.6589 3.6623 0.383618 -9.55983 0.546188 -3.91992 -13.2591 0.307292 -0.660416 4.72568 2.47858 -0.0 0.0 0.0 -0.0 0.0 0.0 5.64682e-15 -2.7166e-13 1.54555e-14 72.4156 22.273 12.815 -25.0958 -21.303 53.2905 -0.247518 -14.0257 -2.01194 9.23903e-10 2.55825e-09 -3.31721e-09 1.63583e-09 4.42013e-09 -5.72323e-09 9.2391e-10 2.55824e-09 -3.3172e-09 7.73091 5.47488 0.417314 9.23902e-10 2.55824e-09 -3.31721e-09 2.90554 0.965183 0.102902 9.23908e-10 2.55824e-09 -3.31721e-09 10.2786 0.731801 0.0259123 9.239e-10 2.55825e-09 -3.31722e-09 2.22167 -0.733487 -0.20892 5.48554e-15 -2.71669e-13 1.51573e-14 -53.002 36.3761 -35.1961 27.627 -28.7214 -65.2119 0.0260156 -4.5994 0.647809 -1.69492e-09 -1.20701e-09 2.68475e-09 -2.94026e-09 -2.08856e-09 4.63747e-09 -1.69494e-09 -1.20701e-09 2.68477e-09 -7.73091 5.47488 -0.417314 -1.69492e-09 -1.20701e-09 2.68476e-09 -2.90554 0.965183 -0.102902 -1.69493e-09 -1.20701e-09 2.68475e-09 -10.2786 0.731801 -0.0259123 -1.69491e-09 -1.20701e-09 2.68475e-09 -2.22167 -0.733487 0.20892 -2.03217e-16 0.0 -3.88251e-19 -25.4249 -33.1971 -15.9673 -0.153871 33.4846 0.614291 -1.10468 0.332292 -11.4485 2.03217e-16 0.0 3.88251e-19 20.4622 -40.7728 17.7726 0.718212 52.1636 -0.941744 3.28444 -12.4311 7.48085
35.9359 82.3088 3.4893 174.204 -84.159 -166.058 -0.204395 39.3591 4.01291 0.259087 -10.3469 0.569577 -4.25979 -14.1886 0.328163 -0.510491 5.17134 2.67552 -0.0 0.0 0.0 -0.0 0.0 0.0 2.21942e-15 -4.64837e-13 1.6112e-14 77.1116 23.6345 13.6479 -25.4204 -20.9577 57.0583 -0.288965 -14.6758 -2.11228 5.21693e-10 1.27858e-09 -1.85427e-09 9.24365e-10 2.20746e-09 -3.19798e-09 5.217e-10 1.27858e-09 -1.85426e-09 7.73091 5.47488 0.417314 5.21693e-10 1.27858e-09 -1.85427e-09 2.90554 0.965183 0.102902 5.21698e-10 1.27858e-09 -1.85427e-09 10.2786 0.731801 0.0259123 5.2169e-10 1.27859e-09 -1.85427e-09 2.22167 -0.733487 -0.20892 2.08803e-15 -4.64845e-13 1.58139e-14 -55.59 38.0241 -38.7526 27.6538 -27.4171 -69.9446 0.0362569 -5.30983 0.748485 -9.43037e-10 -8.06951e-10 1.30743e-09 -1.63374e-09 -1.39652e-09 2.25886e-09 -9.43057e-10 -8.06956e-10 1.30746e-09 -7.73091 5.47488 -0.417314 -9.43042e-10 -8.06952e-10 1.30744e-09 -2.90554 0.965183 -0.102902 -9.43047e-10 -8.06953e-10 1.30743e-09 -10.2786 0.731801 -0.0259123 -9.43031e-10 -8.06954e-10 1.30743e-09 -2.22167 -0.733487 0.20892 -2.03217e-16 0.0 -3.88251e-19 -28.262 -34.8451 -17.7138 -0.202452 36.0767 0.693456 -1.27249 -0.153667 -12.3374 2.03217e-16 0.0 3.88251e-19 22.8802 -43.3783 19.5349 0.900116 56.067 -1.12285 3.57028 -13.5517 7.85355
